<?xml version="1.0" encoding="UTF-8" standalone="no"?>
<!-- Generator: Adobe Illustrator 18.0.0, SVG Export Plug-In . SVG Version: 6.00 Build 0)  -->

<svg
   xmlns:dc="http://purl.org/dc/elements/1.1/"
   xmlns:cc="http://creativecommons.org/ns#"
   xmlns:rdf="http://www.w3.org/1999/02/22-rdf-syntax-ns#"
   xmlns:svg="http://www.w3.org/2000/svg"
   xmlns="http://www.w3.org/2000/svg"
   xmlns:xlink="http://www.w3.org/1999/xlink"
   xmlns:sodipodi="http://sodipodi.sourceforge.net/DTD/sodipodi-0.dtd"
   xmlns:inkscape="http://www.inkscape.org/namespaces/inkscape"
   version="1.1"
   id="Layer_1"
   x="0px"
   y="0px"
   viewBox="0 0 64 64"
   enable-background="new 0 0 64 64"
   xml:space="preserve"
   sodipodi:docname="thumb-girl.svg"
   inkscape:version="0.92.1 r15371"><metadata
     id="metadata95"><rdf:RDF><cc:Work
         rdf:about=""><dc:format>image/svg+xml</dc:format><dc:type
           rdf:resource="http://purl.org/dc/dcmitype/StillImage" /></cc:Work></rdf:RDF></metadata><defs
     id="defs93"><defs
       id="defs9"><path
         id="SVGID_3_"
         d="M 32,0 C 49.7,0 64,14.3 64,32 64,49.7 49.7,64 32,64 14.3,64 0,49.7 0,32 0,14.3 14.3,0 32,0 Z"
         inkscape:connector-curvature="0" /></defs><clipPath
       id="SVGID_2_"><use
         xlink:href="#SVGID_3_"
         overflow="visible"
         id="use11"
         style="overflow:visible"
         x="0"
         y="0"
         width="100%"
         height="100%" /></clipPath></defs><sodipodi:namedview
     pagecolor="#ffffff"
     bordercolor="#666666"
     borderopacity="1"
     objecttolerance="10"
     gridtolerance="10"
     guidetolerance="10"
     inkscape:pageopacity="0"
     inkscape:pageshadow="2"
     inkscape:window-width="1920"
     inkscape:window-height="1001"
     id="namedview91"
     showgrid="false"
     inkscape:zoom="3.6875"
     inkscape:cx="-8.8135593"
     inkscape:cy="32"
     inkscape:window-x="-9"
     inkscape:window-y="-9"
     inkscape:window-maximized="1"
     inkscape:current-layer="Layer_1" /><g
     id="g4605"><rect
       style="fill:#a998f4;fill-opacity:1"
       y="0"
       x="0"
       height="64"
       width="64"
       id="rect3767" /><g
       id="g3890"><g
         style="fill:#ff0066;fill-opacity:1"
         clip-path="url(#SVGID_2_)"
         id="g18"><g
           style="fill:#ff0066;fill-opacity:1"
           id="g16"><rect
             x="18"
             y="36"
             width="28"
             height="21"
             id="rect14"
             style="fill:#ff0066;fill-opacity:1" /></g></g><g
         id="g22"><path
           style="fill:#ff5599;fill-opacity:1"
           inkscape:connector-curvature="0"
           id="path20"
           d="m 13,64 c 0,-9.3 8.5,-17 19,-17 v 0 c 10.4,0 19,7.7 19,17" /></g><g
         clip-path="url(#SVGID_2_)"
         id="g30"><g
           id="g28"><circle
             cx="32"
             cy="50"
             r="6"
             id="circle26"
             style="fill:#ffffff" /></g></g><g
         clip-path="url(#SVGID_2_)"
         id="g36"><g
           id="g34"><path
             d="m 36.1,45.3 v 4.6 C 36.1,52.2 34.2,54 32,54 30.9,54 29.8,53.5 29.1,52.8 28.4,52 27.9,51 27.9,49.9 v -4.6 z"
             id="path32"
             inkscape:connector-curvature="0"
             style="fill:#f7be8f" /></g></g><g
         clip-path="url(#SVGID_2_)"
         id="g42"><g
           id="g40"><path
             d="M 36.3,48.3 C 34.9,48.8 33.5,49 32,49 30.5,49 29.1,48.8 27.7,48.3 L 26,47.5 C 22.8,45.7 20.6,42.7 20.1,39.3 20,38.7 20,38.2 20,37.7 c 0,-1 0,-3.1 0,-4.9 0,-1.7 0,-9.8 0,-9.8 h 24 c 0,0 0,8.1 0,9.8 0,1.8 0,3.8 0,4.9 0,0.5 0,1.1 -0.1,1.6 -0.2,1.5 -0.7,2.8 -1.5,4.1 -1,1.7 -2.5,3.1 -4.4,4.1 -0.6,0.3 -1.1,0.5 -1.7,0.8 z"
             id="path38"
             inkscape:connector-curvature="0"
             style="fill:#fad3a1" /></g></g><g
         clip-path="url(#SVGID_2_)"
         id="g48"><g
           id="g46"><path
             d="M 26.5,32 C 27.3,32 28,32.7 28,33.5 28,34.3 27.3,35 26.5,35 25.7,35 25,34.3 25,33.5 25,32.7 25.7,32 26.5,32 Z"
             id="path44"
             inkscape:connector-curvature="0"
             style="fill:#262647" /></g></g><g
         clip-path="url(#SVGID_2_)"
         id="g54"><g
           id="g52"><path
             d="M 36,33.5 C 36,32.7 36.7,32 37.5,32 38.3,32 39,32.7 39,33.5 39,34.3 38.3,35 37.5,35 36.7,35 36,34.3 36,33.5 Z"
             id="path50"
             inkscape:connector-curvature="0"
             style="fill:#262647" /></g></g><g
         clip-path="url(#SVGID_2_)"
         id="g60"><g
           id="g58"><path
             d="m 33,39 c 0,0.6 -0.4,1 -1,1 -0.6,0 -1,-0.4 -1,-1 z"
             id="path56"
             inkscape:connector-curvature="0"
             style="fill:#f7be8f" /></g></g><g
         clip-path="url(#SVGID_2_)"
         id="g66"><g
           id="g64"><path
             d="m 32,44.5 c -1.6,0 -3.1,-0.9 -3.9,-2.2 C 28,42 28,41.7 28.3,41.6 c 0.2,-0.1 0.5,-0.1 0.7,0.2 0.6,1.1 1.8,1.8 3,1.8 1.2,0 2.4,-0.7 3,-1.8 0.1,-0.2 0.4,-0.3 0.7,-0.2 0.2,0.1 0.3,0.4 0.2,0.7 -0.8,1.3 -2.3,2.2 -3.9,2.2 z"
             id="path62"
             inkscape:connector-curvature="0"
             style="fill:#f4b28e" /></g></g><g
         style="fill:#ff0066;fill-opacity:1"
         clip-path="url(#SVGID_2_)"
         id="g72"><g
           style="fill:#ff0066;fill-opacity:1"
           id="g70"><path
             d="m 46,26 v 7 h -2 v -5.4 l -5.4,-4.2 c -1.5,4 -5.9,6.8 -10.3,6.8 -3,0 -6.4,-1.3 -8.3,-3.4 v 0.9 5.3 h -2 v -8.5 c 0,-3.1 1,-5.6 2.7,-7.5 2.6,-3 6.5,-5.1 10.3,-5 3.1,0.1 5.4,1.1 9,0 0.3,0.5 0.5,1.2 0.3,2.2 -0.1,0.8 -0.2,1 -0.3,1.5 v 0 c 3.5,2.6 6,5.5 6,10.3 z"
             id="path68"
             inkscape:connector-curvature="0"
             style="fill:#ff0066;fill-opacity:1" /></g></g><g
         clip-path="url(#SVGID_2_)"
         id="g78"><g
           id="g76"><path
             d="m 20,37 c -1.7,0 -3,-1.3 -3,-3 0,-0.8 0.3,-1.6 0.9,-2.1 C 18.4,31.4 19.2,31 20,31 Z"
             id="path74"
             inkscape:connector-curvature="0"
             style="fill:#f7be8f" /></g></g><g
         clip-path="url(#SVGID_2_)"
         id="g84"><g
           id="g82"><path
             d="m 44,37 c 1.7,0 3,-1.3 3,-3 0,-0.8 -0.3,-1.6 -0.9,-2.1 C 45.6,31.3 44.8,31 44,31 Z"
             id="path80"
             inkscape:connector-curvature="0"
             style="fill:#f7be8f" /></g></g></g></g></svg>